<svg width="26" height="26" viewBox="0 0 26 26" fill="none" xmlns="http://www.w3.org/2000/svg">
<rect width="26" height="26" fill="#E5E5E5"/>
<g clip-path="url(#clip0_0_1)">
<rect width="1440" height="2032" transform="translate(-116 -217)" fill="white"/>
<rect x="-116" y="-217" width="1440" height="1567" fill="url(#paint0_linear_0_1)"/>
<circle cx="13" cy="13" r="13" fill="url(#paint1_linear_0_1)"/>
<path d="M9.46967 12.4697C9.17678 12.7626 9.17678 13.2374 9.46967 13.5303L14.2426 18.3033C14.5355 18.5962 15.0104 18.5962 15.3033 18.3033C15.5962 18.0104 15.5962 17.5355 15.3033 17.2426L11.0607 13L15.3033 8.75736C15.5962 8.46447 15.5962 7.98959 15.3033 7.6967C15.0104 7.40381 14.5355 7.40381 14.2426 7.6967L9.46967 12.4697ZM11 12.25L10 12.25L10 13.75L11 13.75L11 12.25Z" fill="white"/>
</g>
<defs>
<linearGradient id="paint0_linear_0_1" x1="604" y1="1350" x2="604" y2="-217" gradientUnits="userSpaceOnUse">
<stop stop-color="#211F20"/>
<stop offset="1" stop-color="#44403F"/>
</linearGradient>
<linearGradient id="paint1_linear_0_1" x1="1.25806" y1="1.47727" x2="29.0993" y2="14.4163" gradientUnits="userSpaceOnUse">
<stop stop-color="#618967"/>
<stop offset="1" stop-color="#72A479"/>
</linearGradient>
<clipPath id="clip0_0_1">
<rect width="1440" height="2032" fill="white" transform="translate(-116 -217)"/>
</clipPath>
</defs>
</svg>
